<svg xmlns="http://www.w3.org/2000/svg" viewBox="0 0 32 32">
  <defs>
    <linearGradient id="grad" x1="0%" y1="0%" x2="100%" y2="100%">
      <stop offset="0%" style="stop-color:#246BEB"/>
      <stop offset="100%" style="stop-color:#1A4FAD"/>
    </linearGradient>
  </defs>
  <!-- 배경 -->
  <rect width="32" height="32" rx="6" fill="url(#grad)"/>
  <!-- S 문자 (StyleGuide) -->
  <path d="M10 12c0-2.2 1.8-4 4-4h4c1.1 0 2 .9 2 2s-.9 2-2 2h-4v2h4c2.2 0 4 1.8 4 4s-1.8 4-4 4h-4c-1.1 0-2-.9-2-2s.9-2 2-2h4v-2h-4c-2.2 0-4-1.8-4-4z" fill="white"/>
  <!-- 스타일 바 -->
  <rect x="22" y="8" width="3" height="6" rx="1" fill="#FFD93D"/>
  <rect x="22" y="16" width="3" height="4" rx="1" fill="#6BCB77"/>
  <rect x="22" y="22" width="3" height="3" rx="1" fill="#FF6B6B"/>
</svg>
